<svg xmlns="http://www.w3.org/2000/svg" viewBox="0 0 1391 2016" width="1391" height="2016" role="img" aria-label="Strix owl">
<path fill="#1f2328" fill-rule="evenodd" d="M654 712 L653 713 L649 713 L645 716 L623 738 L623 739 L599 765 L593 774 L587 780 L583 788 L581 790 L581 807 L588 821 L592 826 L594 831 L598 836 L599 839 L602 842 L602 844 L608 852 L608 854 L610 856 L614 864 L617 867 L623 878 L631 889 L632 892 L635 895 L635 897 L641 904 L643 908 L647 912 L649 916 L653 919 L661 919 L668 913 L670 909 L673 906 L674 903 L679 897 L683 889 L688 883 L689 880 L699 866 L703 858 L706 855 L706 853 L709 850 L709 848 L712 845 L712 843 L715 840 L718 834 L721 831 L721 829 L724 826 L724 824 L727 820 L727 818 L730 815 L730 813 L733 809 L734 796 L733 795 L733 790 L730 786 L730 784 L718 768 L709 759 L709 758 L703 752 L697 744 L682 729 L682 728 L681 728 L673 719 L665 713 L662 713 L661 712ZM891 645 L893 644 L896 644 L897 645 L907 644 L911 648 L911 650 L914 654 L914 656 L917 661 L918 665 L920 667 L920 669 L923 674 L923 676 L925 678 L926 682 L928 684 L929 688 L932 692 L932 695 L935 699 L935 702 L933 704 L931 704 L924 707 L918 707 L917 708 L913 708 L912 709 L908 709 L907 710 L895 710 L894 709 L887 709 L886 708 L881 708 L880 707 L874 707 L873 706 L868 705 L864 702 L865 697 L867 695 L868 691 L871 687 L871 684 L873 682 L874 678 L877 674 L877 671 L880 667 L880 665 L883 660 L883 658 L886 655 L886 652ZM404 644 L406 643 L408 643 L409 644 L415 644 L417 643 L421 645 L422 648 L425 652 L425 654 L428 658 L429 662 L431 664 L432 668 L434 670 L434 673 L437 676 L437 679 L439 681 L440 685 L443 689 L444 693 L446 695 L446 697 L448 700 L445 704 L442 704 L434 707 L427 707 L426 708 L420 708 L419 709 L402 709 L401 708 L396 708 L395 707 L388 707 L387 706 L379 704 L377 702 L377 699 L379 697 L379 695 L382 691 L382 688 L384 686 L385 682 L388 677 L388 675 L390 673 L391 669 L394 664 L394 662 L397 658 L397 655 L399 653 L400 649ZM947 619 L954 619 L961 622 L967 622 L973 625 L980 625 L987 628 L993 628 L999 631 L1004 631 L1007 633 L1007 638 L1004 643 L1004 645 L1002 647 L1001 651 L998 654 L995 660 L978 679 L977 679 L965 689 L963 689 L961 687 L961 685 L958 682 L958 679 L955 675 L955 673 L952 668 L952 666 L949 662 L949 660 L946 655 L946 653 L943 649 L943 647 L940 643 L940 640 L938 638 L936 633 L937 630ZM852 619 L863 631 L863 634 L860 637 L860 640 L857 643 L857 646 L855 648 L854 652 L851 657 L851 659 L848 664 L848 666 L845 670 L844 674 L842 676 L842 679 L839 682 L839 685 L835 689 L834 689 L827 683 L823 681 L808 666 L803 659 L802 656 L799 653 L799 651 L797 649 L796 645 L793 642 L793 639 L790 636 L790 634 L793 631 L798 631 L805 628 L811 628 L818 625 L824 625 L830 622 L837 622 L838 621 L841 621 L846 619ZM458 619 L467 619 L474 622 L480 622 L487 625 L493 625 L499 628 L506 628 L513 631 L518 631 L520 633 L520 636 L518 639 L518 641 L515 645 L515 647 L512 650 L512 652 L509 655 L509 657 L500 669 L492 677 L491 677 L485 683 L481 685 L478 688 L476 688 L472 684 L472 682 L469 678 L469 675 L467 673 L466 669 L463 665 L462 661 L460 659 L460 656 L457 652 L457 650 L454 645 L454 643 L452 641 L451 637 L448 633 L448 631 L454 625 L455 622ZM365 619 L371 627 L374 629 L375 634 L373 639 L371 641 L371 644 L369 646 L368 650 L365 654 L365 657 L363 659 L362 663 L359 667 L359 670 L356 675 L356 678 L353 681 L353 684 L349 689 L346 689 L336 680 L335 680 L318 662 L310 650 L309 646 L307 644 L307 641 L304 637 L304 633 L306 631 L312 631 L315 629 L317 629 L318 628 L324 628 L330 625 L337 625 L344 622 L350 622 L357 619ZM893 568 L906 568 L908 570 L912 571 L920 579 L923 585 L923 599 L920 605 L911 613 L906 614 L902 616 L897 616 L893 614 L890 614 L887 611 L885 611 L880 606 L879 603 L877 601 L877 597 L876 596 L876 587 L877 586 L877 583 L879 581 L880 578 L886 572 L889 571ZM404 568 L417 568 L427 574 L431 578 L432 581 L434 583 L434 589 L435 590 L434 600 L431 605 L425 611 L420 614 L415 614 L414 615 L402 614 L391 604 L390 601 L388 599 L388 585 L391 579 L399 571 L402 570ZM949 571 L955 565 L975 550 L981 544 L997 532 L999 532 L1004 538 L1004 540 L1007 544 L1007 546 L1010 551 L1010 554 L1013 559 L1013 564 L1016 571 L1016 584 L1017 585 L1017 596 L1016 597 L1016 601 L1015 602 L1007 602 L1001 599 L995 599 L992 597 L990 597 L989 596 L984 596 L977 593 L970 593 L963 590 L957 590 L952 585 L952 578 L949 573ZM850 571 L846 585 L842 590 L835 590 L830 593 L824 593 L823 594 L820 594 L815 596 L810 596 L803 599 L797 599 L791 602 L784 602 L782 600 L782 580 L783 579 L783 575 L784 574 L784 565 L787 560 L787 555 L790 551 L790 548 L793 544 L793 541 L796 538 L796 536 L800 532 L803 532 L811 538 L828 553 L837 559ZM508 532 L510 532 L514 537 L515 541 L518 544 L518 547 L521 551 L521 554 L524 560 L524 565 L525 566 L526 573 L527 574 L527 601 L526 602 L520 602 L515 599 L508 599 L501 596 L496 596 L488 593 L483 593 L476 590 L469 590 L465 586 L465 582 L463 578 L463 575 L461 572 L462 569 L465 566 L470 563 L475 558 L476 558ZM312 532 L315 532 L323 538 L328 543 L329 543 L339 552 L340 552 L362 570 L362 573 L359 578 L359 584 L355 590 L349 590 L346 592 L343 592 L342 593 L336 593 L329 596 L320 597 L317 599 L310 599 L304 602 L297 602 L295 600 L295 576 L298 568 L298 562 L301 557 L301 553 L304 548 L304 545 L307 541 L308 537ZM917 475 L921 475 L928 478 L933 478 L936 480 L942 481 L946 484 L949 484 L951 486 L955 487 L958 490 L960 490 L972 499 L979 506 L979 508 L978 509 L977 509 L963 521 L954 527 L948 533 L929 547 L924 545 L921 542 L918 542 L915 539 L915 537 L914 536 L915 535 L915 483 L914 481 L915 480 L915 477ZM883 475 L885 477 L885 537 L883 541 L878 542 L874 545 L870 546 L860 539 L846 527 L837 521 L827 512 L822 509 L820 506 L827 499 L835 493 L841 490 L843 488 L847 487 L850 484 L853 484 L857 481 L860 481 L866 478 L871 478 L877 475ZM428 475 L435 475 L438 477 L446 478 L451 481 L454 481 L456 483 L460 484 L464 487 L466 487 L469 490 L471 490 L478 496 L482 498 L490 506 L490 508 L468 524 L462 530 L445 542 L441 546 L438 546 L432 542 L429 542 L426 539 L426 477ZM394 475 L396 477 L396 538 L394 541 L390 542 L384 546 L382 546 L364 533 L358 527 L332 507 L332 504 L346 493 L348 493 L351 490 L354 489 L361 484 L363 484 L368 481 L371 481 L376 478 L383 477 L386 475ZM897 373 L892 375 L887 381 L887 433 L881 440 L875 440 L868 443 L862 443 L857 446 L852 446 L848 449 L844 449 L840 452 L837 452 L834 455 L831 455 L828 458 L826 458 L824 460 L816 464 L803 475 L802 475 L795 482 L787 482 L749 452 L738 452 L731 459 L730 461 L730 471 L731 473 L736 478 L770 504 L770 507 L771 508 L771 512 L768 516 L767 520 L764 523 L764 525 L761 529 L761 532 L759 534 L758 539 L755 544 L755 549 L752 554 L752 560 L750 563 L750 567 L749 568 L749 580 L748 581 L748 603 L749 604 L749 609 L740 617 L732 617 L725 620 L720 620 L716 622 L707 623 L706 624 L703 624 L702 625 L697 626 L692 630 L692 632 L690 634 L690 636 L689 637 L689 641 L691 643 L693 648 L698 652 L710 652 L717 649 L724 648 L727 646 L732 646 L739 643 L744 643 L747 641 L751 641 L755 643 L758 646 L758 649 L761 653 L761 656 L763 658 L764 662 L770 671 L770 673 L785 693 L804 711 L807 712 L811 716 L818 720 L820 728 L818 731 L818 733 L815 737 L815 739 L812 743 L811 747 L809 749 L808 753 L806 755 L805 759 L803 761 L803 764 L801 766 L800 770 L798 773 L798 778 L800 781 L800 783 L805 787 L807 787 L808 788 L817 788 L822 785 L826 779 L826 776 L828 774 L830 768 L832 766 L832 763 L834 761 L835 757 L838 752 L838 750 L841 746 L841 743 L845 739 L848 738 L850 736 L856 739 L862 739 L865 741 L868 741 L869 742 L877 742 L878 743 L882 743 L883 744 L914 744 L915 743 L921 743 L922 742 L929 742 L936 739 L941 739 L946 736 L948 736 L956 742 L956 744 L959 748 L959 751 L962 755 L962 758 L964 760 L965 764 L968 768 L968 771 L971 774 L971 777 L974 783 L980 788 L987 789 L988 788 L993 787 L997 783 L1000 775 L999 774 L999 772 L997 770 L997 767 L994 763 L994 760 L991 756 L991 754 L988 749 L988 747 L986 745 L985 741 L982 737 L981 733 L979 731 L979 721 L982 718 L984 718 L996 709 L1005 700 L1006 700 L1018 687 L1032 667 L1033 663 L1036 660 L1036 657 L1039 653 L1039 650 L1041 646 L1044 643 L1047 643 L1048 642 L1058 643 L1065 646 L1071 646 L1077 649 L1082 649 L1088 652 L1102 652 L1106 648 L1107 648 L1108 644 L1110 641 L1110 636 L1108 634 L1108 631 L1102 626 L1099 626 L1093 623 L1084 622 L1080 620 L1074 620 L1068 617 L1060 617 L1056 615 L1051 610 L1051 572 L1050 571 L1050 567 L1048 563 L1048 556 L1045 550 L1045 546 L1042 540 L1042 537 L1040 535 L1039 531 L1036 527 L1036 524 L1034 522 L1033 518 L1029 512 L1029 508 L1030 507 L1030 505 L1036 499 L1040 497 L1047 491 L1050 490 L1056 484 L1064 479 L1070 473 L1072 468 L1072 463 L1070 461 L1068 456 L1067 456 L1063 452 L1052 452 L1044 458 L1038 464 L1032 467 L1026 473 L1014 482 L1005 482 L989 468 L982 464 L979 461 L977 461 L974 458 L972 458 L969 455 L966 455 L962 452 L960 452 L955 449 L952 449 L947 446 L943 446 L938 443 L931 443 L928 441 L919 440 L916 437 L915 434 L913 432 L913 416 L914 415 L914 383 L912 378 L909 375 L904 373ZM408 373 L407 374 L402 375 L402 376 L398 380 L398 432 L392 440 L384 440 L377 443 L372 443 L367 446 L363 446 L358 449 L355 449 L351 452 L346 453 L344 455 L341 455 L338 458 L336 458 L333 461 L331 461 L324 467 L316 472 L306 482 L298 482 L276 464 L267 458 L261 452 L249 452 L242 459 L242 462 L240 466 L243 474 L270 496 L279 502 L281 504 L281 507 L283 510 L283 512 L279 518 L275 526 L275 528 L272 533 L272 535 L269 540 L269 544 L266 549 L266 553 L263 561 L263 569 L262 570 L261 581 L260 582 L260 601 L261 602 L261 608 L260 610 L255 615 L253 615 L250 617 L243 617 L240 619 L231 620 L224 623 L219 623 L218 624 L214 624 L211 626 L209 626 L203 633 L203 644 L205 647 L211 652 L223 652 L229 649 L235 649 L238 647 L240 647 L241 646 L246 646 L252 643 L258 643 L262 641 L266 643 L268 643 L272 648 L272 652 L274 654 L275 658 L278 662 L278 664 L284 672 L284 674 L287 677 L293 687 L315 709 L323 715 L329 718 L332 721 L333 723 L333 728 L332 729 L332 731 L329 735 L329 737 L326 741 L325 745 L323 747 L323 750 L321 752 L320 756 L317 760 L317 762 L314 767 L314 769 L311 775 L311 777 L314 783 L319 787 L321 787 L322 788 L330 788 L334 786 L337 783 L340 778 L341 774 L343 772 L343 769 L346 764 L347 760 L349 758 L349 756 L352 751 L353 747 L355 745 L356 741 L360 739 L363 736 L368 737 L371 739 L376 739 L382 742 L398 743 L399 744 L425 744 L426 743 L432 743 L433 742 L441 742 L449 739 L453 739 L459 736 L463 736 L470 741 L470 743 L473 748 L474 752 L476 754 L476 757 L479 761 L479 764 L481 766 L482 770 L485 774 L485 777 L488 781 L488 783 L492 787 L495 787 L496 788 L504 788 L505 787 L507 787 L513 780 L514 778 L514 772 L511 768 L511 766 L508 761 L508 759 L506 757 L505 753 L502 749 L502 747 L499 743 L499 741 L496 737 L495 733 L493 731 L493 720 L495 718 L497 718 L509 709 L518 700 L519 700 L527 691 L529 687 L535 681 L538 675 L541 672 L541 670 L547 661 L547 659 L550 654 L550 652 L553 647 L553 645 L556 642 L558 642 L562 640 L567 643 L574 643 L580 646 L585 646 L588 648 L596 649 L603 652 L613 652 L620 646 L622 642 L622 634 L616 626 L614 626 L611 624 L608 624 L607 623 L598 622 L595 620 L589 620 L582 617 L576 617 L575 616 L567 614 L562 609 L562 571 L561 570 L561 565 L559 562 L559 555 L556 550 L556 546 L553 541 L553 538 L550 533 L550 531 L547 526 L547 524 L545 522 L544 518 L541 515 L541 513 L540 512 L541 504 L546 499 L548 499 L564 487 L568 483 L576 478 L580 474 L583 467 L583 464 L579 456 L578 456 L574 452 L563 452 L543 467 L537 473 L529 478 L525 482 L516 482 L510 476 L509 476 L503 470 L495 464 L489 461 L486 458 L484 458 L480 455 L476 454 L474 452 L471 452 L467 449 L464 449 L459 446 L455 446 L449 443 L443 443 L440 441 L431 440 L424 432 L424 428 L425 427 L425 420 L424 419 L424 397 L425 396 L425 384 L424 383 L424 380 L419 374 L417 374 L416 373ZM89 74 L86 77 L86 100 L87 101 L87 105 L88 106 L88 110 L89 111 L89 119 L90 120 L90 123 L92 128 L92 135 L95 142 L95 148 L98 154 L98 159 L101 164 L101 169 L104 175 L104 179 L107 183 L107 186 L110 190 L110 194 L112 196 L113 200 L116 204 L116 207 L119 210 L119 213 L122 216 L122 218 L125 222 L125 224 L128 227 L128 229 L130 231 L131 234 L134 237 L135 240 L140 246 L143 252 L149 258 L152 264 L173 287 L173 290 L149 322 L149 324 L144 330 L143 333 L135 345 L133 350 L131 352 L131 354 L128 357 L128 359 L126 361 L125 365 L123 367 L122 371 L120 373 L119 377 L116 381 L116 384 L114 386 L113 390 L110 395 L110 398 L107 402 L107 405 L104 410 L104 413 L101 417 L101 421 L98 426 L98 430 L95 435 L95 439 L93 442 L92 449 L89 455 L89 461 L86 467 L86 473 L83 479 L83 487 L80 495 L80 505 L79 506 L79 510 L78 511 L78 515 L77 516 L77 530 L76 531 L76 543 L75 544 L75 556 L74 557 L74 587 L75 588 L75 600 L76 601 L76 610 L77 611 L77 626 L78 627 L78 632 L80 637 L80 647 L83 655 L83 664 L86 670 L86 677 L88 680 L89 689 L92 695 L92 701 L95 706 L95 711 L98 716 L98 720 L101 725 L101 729 L104 734 L104 738 L107 742 L107 746 L110 750 L110 752 L116 764 L116 767 L118 769 L119 773 L122 777 L122 780 L125 783 L125 785 L128 789 L128 791 L131 795 L131 797 L134 800 L135 804 L139 809 L140 813 L143 816 L143 818 L146 821 L146 823 L147 824 L146 832 L143 836 L143 839 L140 844 L140 847 L137 852 L137 855 L134 860 L134 863 L131 868 L131 872 L129 874 L128 881 L125 886 L125 890 L122 895 L122 901 L120 903 L119 910 L116 916 L116 921 L113 927 L113 934 L111 937 L111 939 L110 940 L110 946 L107 952 L107 960 L105 964 L105 967 L104 968 L104 976 L101 984 L101 993 L100 994 L100 998 L98 1003 L98 1013 L97 1014 L96 1022 L95 1023 L95 1036 L94 1037 L94 1043 L93 1044 L93 1050 L92 1051 L92 1074 L91 1075 L91 1088 L90 1089 L90 1129 L91 1130 L91 1148 L92 1149 L92 1175 L93 1176 L93 1183 L94 1184 L94 1190 L95 1191 L95 1204 L96 1205 L97 1215 L98 1216 L98 1227 L99 1228 L99 1231 L101 1236 L101 1244 L102 1245 L103 1253 L104 1254 L104 1261 L107 1269 L107 1275 L110 1281 L110 1287 L113 1293 L113 1300 L116 1306 L116 1311 L119 1317 L119 1321 L122 1326 L122 1331 L125 1336 L125 1340 L128 1345 L129 1352 L131 1354 L131 1358 L134 1362 L134 1366 L137 1370 L137 1374 L140 1378 L140 1381 L143 1386 L143 1389 L146 1393 L146 1396 L149 1400 L149 1403 L152 1407 L152 1410 L155 1414 L155 1417 L157 1419 L158 1423 L161 1427 L161 1429 L164 1433 L165 1437 L167 1439 L167 1442 L169 1444 L170 1448 L173 1452 L173 1454 L179 1462 L179 1464 L182 1468 L182 1470 L188 1478 L188 1480 L194 1489 L194 1491 L203 1503 L203 1505 L211 1516 L212 1519 L215 1522 L215 1524 L221 1531 L221 1533 L225 1537 L227 1541 L248 1569 L257 1579 L260 1584 L269 1593 L269 1594 L275 1600 L281 1608 L336 1663 L337 1663 L343 1669 L351 1675 L360 1684 L365 1687 L370 1692 L380 1699 L390 1708 L398 1713 L402 1717 L418 1729 L422 1731 L426 1735 L432 1738 L439 1744 L445 1747 L465 1762 L467 1762 L474 1768 L476 1768 L479 1771 L482 1772 L484 1774 L487 1775 L492 1779 L497 1781 L501 1784 L501 1786 L500 1787 L438 1787 L437 1788 L433 1788 L428 1790 L423 1790 L422 1791 L420 1791 L418 1793 L414 1793 L409 1796 L406 1796 L401 1799 L399 1799 L396 1802 L394 1802 L391 1805 L388 1806 L377 1814 L365 1826 L353 1842 L353 1844 L351 1846 L350 1850 L347 1854 L347 1857 L344 1862 L344 1866 L341 1873 L341 1907 L343 1911 L344 1918 L346 1921 L347 1926 L350 1929 L351 1932 L359 1939 L362 1939 L368 1942 L375 1942 L376 1941 L379 1941 L382 1939 L384 1939 L391 1932 L392 1929 L394 1927 L394 1924 L397 1920 L397 1916 L399 1913 L400 1907 L403 1902 L403 1900 L406 1896 L406 1894 L416 1882 L423 1877 L427 1876 L432 1873 L449 1873 L451 1875 L450 1880 L449 1881 L449 1908 L450 1909 L450 1913 L452 1916 L452 1921 L455 1926 L455 1928 L459 1934 L465 1939 L467 1939 L473 1942 L482 1942 L488 1939 L490 1939 L494 1936 L502 1927 L503 1924 L505 1922 L505 1920 L508 1915 L508 1913 L511 1909 L511 1906 L514 1903 L515 1900 L517 1898 L517 1896 L523 1890 L523 1889 L534 1880 L539 1878 L541 1876 L546 1876 L551 1873 L672 1873 L674 1875 L674 1886 L676 1890 L677 1901 L680 1906 L680 1910 L683 1913 L683 1916 L686 1920 L686 1922 L689 1925 L689 1927 L697 1936 L701 1939 L704 1939 L710 1942 L718 1942 L721 1940 L726 1939 L736 1929 L736 1926 L739 1922 L739 1918 L742 1913 L742 1905 L745 1899 L745 1894 L748 1889 L748 1886 L751 1883 L751 1881 L759 1873 L784 1873 L786 1875 L786 1888 L787 1889 L787 1894 L788 1895 L788 1903 L789 1904 L789 1907 L791 1910 L791 1915 L794 1919 L794 1922 L797 1926 L797 1928 L799 1931 L805 1937 L816 1942 L824 1942 L829 1939 L832 1939 L838 1935 L844 1927 L844 1925 L847 1921 L847 1919 L850 1914 L850 1912 L853 1907 L853 1904 L856 1900 L856 1897 L858 1895 L859 1891 L863 1885 L870 1878 L873 1876 L875 1876 L879 1873 L936 1873 L937 1874 L969 1875 L970 1876 L1016 1876 L1017 1877 L1039 1877 L1040 1878 L1062 1878 L1063 1879 L1103 1879 L1103 1877 L1101 1877 L1099 1875 L1095 1874 L1085 1868 L1083 1868 L1074 1862 L1072 1862 L1070 1860 L1066 1859 L1063 1856 L1061 1856 L1059 1854 L1055 1853 L1053 1851 L1048 1849 L1041 1844 L1039 1844 L1036 1841 L1034 1841 L1026 1835 L1024 1835 L1020 1832 L1018 1832 L1015 1829 L1013 1829 L1010 1826 L1008 1826 L1006 1824 L1003 1823 L1001 1821 L998 1820 L996 1818 L978 1808 L975 1805 L973 1805 L970 1802 L968 1802 L965 1799 L963 1799 L960 1796 L958 1796 L951 1790 L949 1790 L946 1787 L935 1781 L932 1778 L930 1778 L927 1775 L912 1766 L905 1760 L903 1760 L900 1757 L894 1754 L888 1749 L885 1748 L878 1742 L874 1740 L870 1736 L864 1733 L849 1721 L841 1716 L837 1712 L829 1707 L825 1703 L816 1697 L810 1691 L801 1685 L795 1679 L786 1673 L773 1661 L768 1658 L756 1646 L755 1646 L743 1635 L742 1635 L710 1604 L709 1604 L660 1553 L660 1552 L654 1546 L649 1539 L640 1530 L634 1521 L628 1515 L625 1509 L619 1503 L616 1497 L612 1493 L607 1485 L601 1478 L593 1466 L589 1458 L586 1455 L586 1453 L583 1450 L583 1448 L580 1445 L580 1443 L578 1441 L576 1436 L571 1429 L571 1427 L568 1424 L568 1422 L562 1413 L562 1410 L559 1407 L559 1404 L556 1401 L556 1398 L554 1396 L553 1392 L550 1388 L550 1385 L547 1381 L547 1378 L544 1374 L543 1369 L541 1367 L541 1363 L538 1358 L537 1353 L535 1350 L534 1344 L532 1342 L532 1338 L529 1333 L529 1327 L526 1322 L526 1317 L523 1310 L523 1306 L520 1298 L520 1291 L519 1290 L519 1287 L517 1282 L517 1273 L516 1272 L515 1264 L514 1263 L514 1249 L513 1248 L513 1239 L512 1238 L512 1199 L513 1198 L513 1189 L514 1188 L514 1172 L515 1171 L515 1167 L517 1162 L517 1154 L519 1150 L520 1139 L522 1135 L523 1126 L526 1119 L527 1113 L529 1110 L529 1106 L532 1101 L532 1097 L534 1095 L535 1090 L538 1085 L538 1082 L541 1077 L541 1074 L544 1070 L544 1068 L547 1063 L547 1061 L550 1056 L550 1054 L552 1052 L553 1048 L559 1039 L559 1037 L561 1035 L563 1030 L568 1023 L568 1021 L571 1018 L574 1012 L576 1010 L577 1006 L580 1001 L580 980 L578 977 L577 972 L574 968 L574 966 L568 958 L560 950 L548 941 L546 941 L540 936 L536 935 L534 933 L530 932 L526 929 L523 929 L519 926 L515 926 L510 923 L507 923 L501 920 L496 920 L491 917 L484 917 L477 914 L470 914 L462 911 L454 911 L453 910 L448 910 L447 909 L442 909 L441 908 L424 908 L423 907 L415 907 L410 905 L400 905 L393 902 L387 902 L381 899 L375 899 L369 896 L364 896 L362 894 L356 893 L351 890 L348 890 L344 887 L340 887 L338 885 L334 884 L329 881 L327 881 L323 878 L321 878 L317 875 L315 875 L313 873 L309 872 L300 866 L298 866 L290 860 L288 860 L285 857 L275 851 L255 836 L220 802 L220 801 L211 792 L205 783 L199 777 L196 771 L192 767 L188 761 L184 753 L181 750 L181 748 L178 745 L178 743 L172 734 L172 732 L170 730 L169 726 L167 724 L166 720 L163 716 L163 713 L161 711 L160 706 L157 702 L157 699 L154 694 L154 691 L152 689 L151 683 L148 677 L148 673 L145 667 L145 661 L142 655 L142 648 L139 641 L139 631 L138 630 L137 621 L136 620 L136 607 L135 606 L135 564 L136 563 L136 549 L137 548 L137 541 L139 536 L139 529 L142 521 L142 515 L145 509 L145 504 L147 501 L148 494 L151 489 L151 485 L154 480 L154 477 L157 473 L157 470 L160 465 L161 461 L163 459 L163 456 L165 454 L166 450 L169 447 L169 444 L172 441 L172 439 L177 432 L179 427 L187 417 L187 415 L193 406 L203 395 L208 388 L232 364 L233 364 L238 359 L239 359 L243 355 L259 343 L262 342 L267 338 L270 337 L282 329 L287 327 L289 325 L291 325 L295 322 L297 322 L316 313 L320 313 L324 310 L328 310 L334 307 L338 307 L345 304 L350 304 L358 301 L365 301 L366 300 L369 300 L374 298 L397 297 L398 296 L428 296 L429 297 L437 297 L438 298 L449 298 L453 300 L465 301 L469 303 L478 304 L486 307 L490 307 L495 310 L498 310 L503 313 L506 313 L511 316 L514 316 L516 318 L521 319 L523 321 L527 322 L529 324 L533 325 L535 327 L539 328 L541 330 L546 332 L576 352 L582 358 L583 358 L596 370 L597 370 L599 373 L600 373 L608 381 L608 382 L620 394 L623 399 L629 405 L631 409 L638 417 L639 420 L644 426 L644 428 L647 431 L648 434 L657 447 L667 435 L667 433 L675 421 L679 417 L679 415 L691 401 L691 400 L697 394 L697 393 L709 381 L709 380 L711 379 L712 377 L714 376 L729 361 L753 343 L755 343 L758 340 L761 339 L766 335 L776 330 L778 328 L780 328 L782 326 L786 325 L790 322 L792 322 L797 319 L800 319 L804 316 L807 316 L811 313 L814 313 L818 310 L822 310 L828 307 L833 307 L836 305 L844 304 L851 301 L858 301 L859 300 L864 300 L868 298 L880 298 L881 297 L888 297 L889 296 L917 296 L918 297 L941 298 L942 299 L945 299 L950 301 L958 301 L962 303 L966 303 L967 304 L971 304 L978 307 L982 307 L988 310 L992 310 L996 313 L1000 313 L1004 316 L1007 316 L1012 319 L1014 319 L1018 322 L1020 322 L1028 326 L1030 328 L1034 329 L1036 331 L1039 332 L1041 334 L1043 334 L1046 337 L1052 340 L1059 346 L1061 346 L1077 358 L1086 367 L1087 367 L1115 396 L1130 416 L1131 419 L1136 425 L1136 427 L1139 430 L1139 432 L1142 435 L1142 437 L1144 439 L1145 443 L1148 446 L1148 448 L1151 452 L1152 456 L1154 458 L1154 461 L1157 465 L1157 467 L1160 472 L1160 475 L1163 479 L1163 482 L1166 487 L1166 492 L1169 497 L1169 502 L1172 508 L1172 513 L1175 520 L1175 527 L1178 534 L1178 543 L1179 544 L1179 549 L1180 550 L1180 554 L1181 555 L1181 611 L1180 612 L1180 617 L1179 618 L1179 622 L1178 623 L1178 633 L1176 637 L1176 640 L1175 641 L1175 648 L1172 656 L1172 662 L1169 668 L1169 673 L1166 678 L1166 682 L1163 687 L1163 691 L1160 695 L1160 699 L1157 703 L1157 707 L1155 709 L1154 713 L1151 717 L1151 720 L1148 723 L1148 726 L1145 729 L1145 731 L1142 735 L1142 737 L1140 739 L1138 744 L1128 759 L1127 762 L1121 769 L1119 773 L1115 777 L1113 781 L1103 792 L1099 798 L1091 806 L1091 807 L1088 809 L1088 810 L1080 818 L1079 818 L1077 821 L1076 821 L1056 839 L1040 851 L1038 851 L1022 863 L1019 864 L1017 866 L1015 866 L1012 869 L1008 870 L1001 875 L998 875 L995 878 L992 878 L990 880 L986 881 L984 883 L980 884 L976 887 L972 887 L968 890 L965 890 L960 893 L956 893 L951 896 L947 896 L941 899 L936 899 L929 902 L923 902 L916 905 L907 905 L906 906 L892 907 L891 908 L874 908 L873 909 L869 909 L868 910 L864 910 L863 911 L854 911 L846 914 L839 914 L831 917 L825 917 L819 920 L814 920 L809 923 L804 923 L799 926 L795 926 L790 929 L787 929 L782 932 L778 932 L776 934 L771 935 L769 937 L765 938 L761 941 L758 941 L756 943 L752 944 L748 947 L746 947 L737 953 L735 953 L732 956 L730 956 L727 959 L719 963 L713 968 L711 968 L707 972 L699 977 L693 983 L681 992 L656 1017 L656 1018 L639 1038 L638 1041 L632 1048 L629 1054 L626 1057 L625 1060 L621 1065 L619 1070 L617 1072 L617 1074 L614 1077 L614 1079 L608 1089 L608 1092 L605 1095 L605 1098 L602 1101 L602 1104 L599 1108 L599 1112 L597 1114 L596 1119 L593 1124 L593 1128 L590 1133 L590 1138 L587 1144 L587 1149 L584 1155 L584 1162 L581 1170 L581 1178 L580 1179 L580 1183 L579 1184 L579 1188 L578 1189 L578 1206 L577 1207 L577 1239 L578 1240 L578 1260 L579 1261 L579 1267 L581 1272 L581 1281 L582 1282 L582 1286 L584 1291 L584 1298 L587 1305 L587 1310 L590 1316 L590 1321 L593 1327 L593 1331 L596 1336 L596 1341 L599 1345 L599 1349 L602 1353 L602 1357 L605 1361 L605 1364 L608 1368 L608 1371 L611 1375 L611 1378 L614 1382 L614 1384 L617 1389 L617 1391 L620 1395 L620 1397 L623 1401 L623 1403 L626 1406 L626 1408 L629 1412 L629 1414 L632 1417 L632 1419 L635 1422 L635 1424 L638 1427 L638 1429 L644 1437 L644 1439 L647 1442 L647 1444 L650 1447 L650 1449 L656 1456 L656 1458 L662 1465 L664 1469 L677 1485 L680 1491 L686 1497 L689 1502 L695 1508 L695 1509 L701 1515 L701 1516 L707 1522 L713 1530 L731 1548 L731 1549 L732 1549 L734 1552 L735 1552 L737 1555 L738 1555 L740 1558 L764 1582 L765 1582 L780 1597 L781 1597 L783 1600 L784 1600 L810 1624 L822 1633 L846 1654 L855 1660 L861 1666 L865 1668 L873 1675 L901 1696 L911 1702 L922 1711 L928 1714 L931 1717 L943 1725 L946 1726 L953 1732 L955 1732 L958 1735 L964 1738 L967 1741 L970 1742 L975 1746 L978 1747 L981 1750 L983 1750 L986 1753 L988 1753 L991 1756 L993 1756 L1000 1762 L1002 1762 L1005 1765 L1007 1765 L1010 1768 L1012 1768 L1015 1771 L1017 1771 L1020 1774 L1022 1774 L1024 1776 L1032 1780 L1035 1783 L1037 1783 L1039 1785 L1043 1786 L1046 1789 L1048 1789 L1057 1795 L1059 1795 L1062 1798 L1065 1799 L1067 1801 L1069 1801 L1072 1804 L1074 1804 L1078 1807 L1080 1807 L1084 1810 L1086 1810 L1090 1813 L1092 1813 L1101 1819 L1103 1819 L1107 1822 L1109 1822 L1111 1824 L1115 1825 L1118 1828 L1121 1828 L1123 1830 L1127 1831 L1129 1833 L1133 1834 L1137 1837 L1139 1837 L1144 1840 L1146 1840 L1150 1843 L1153 1843 L1155 1845 L1159 1846 L1170 1852 L1172 1852 L1176 1855 L1179 1855 L1183 1858 L1187 1858 L1191 1861 L1194 1861 L1198 1864 L1201 1864 L1205 1867 L1208 1867 L1213 1870 L1216 1870 L1220 1873 L1223 1873 L1228 1876 L1231 1876 L1236 1879 L1239 1879 L1242 1881 L1248 1882 L1254 1885 L1257 1885 L1262 1888 L1266 1888 L1271 1891 L1275 1891 L1278 1893 L1279 1891 L1273 1883 L1273 1881 L1270 1878 L1270 1876 L1268 1874 L1267 1870 L1264 1867 L1264 1864 L1261 1860 L1261 1857 L1258 1853 L1258 1850 L1255 1845 L1255 1842 L1252 1837 L1252 1833 L1249 1828 L1249 1824 L1246 1819 L1246 1815 L1243 1808 L1243 1802 L1240 1795 L1240 1787 L1237 1780 L1237 1771 L1236 1770 L1236 1766 L1234 1761 L1234 1745 L1233 1744 L1232 1727 L1231 1726 L1231 1654 L1232 1653 L1232 1644 L1233 1643 L1233 1636 L1234 1635 L1234 1616 L1235 1615 L1236 1603 L1237 1602 L1237 1589 L1238 1588 L1238 1584 L1239 1583 L1239 1579 L1240 1578 L1240 1567 L1241 1566 L1241 1562 L1242 1561 L1242 1557 L1243 1556 L1243 1546 L1244 1545 L1244 1541 L1245 1540 L1245 1536 L1246 1535 L1246 1526 L1247 1525 L1248 1517 L1249 1516 L1249 1506 L1250 1505 L1250 1502 L1252 1497 L1252 1489 L1253 1488 L1254 1480 L1255 1479 L1255 1471 L1258 1463 L1258 1454 L1259 1453 L1259 1450 L1261 1445 L1261 1438 L1264 1430 L1264 1423 L1267 1415 L1267 1408 L1270 1400 L1270 1393 L1271 1392 L1271 1389 L1273 1385 L1273 1377 L1276 1369 L1276 1361 L1279 1354 L1279 1347 L1281 1344 L1281 1341 L1282 1340 L1282 1333 L1285 1325 L1285 1318 L1286 1317 L1286 1314 L1288 1311 L1288 1303 L1291 1295 L1291 1288 L1292 1287 L1292 1284 L1294 1279 L1294 1272 L1295 1271 L1295 1268 L1297 1263 L1297 1255 L1300 1247 L1300 1240 L1301 1239 L1301 1236 L1303 1231 L1303 1223 L1304 1222 L1305 1214 L1306 1213 L1306 1204 L1307 1203 L1307 1200 L1309 1195 L1309 1185 L1310 1184 L1310 1180 L1312 1175 L1312 1160 L1313 1159 L1314 1148 L1315 1147 L1315 1128 L1316 1127 L1316 1112 L1317 1111 L1317 1059 L1316 1058 L1316 1044 L1315 1043 L1315 1026 L1314 1025 L1314 1020 L1313 1019 L1313 1015 L1312 1014 L1312 1002 L1309 994 L1309 986 L1306 978 L1306 972 L1303 965 L1303 959 L1300 953 L1300 948 L1297 943 L1297 939 L1294 934 L1294 930 L1293 929 L1293 927 L1291 925 L1291 920 L1288 916 L1288 912 L1285 908 L1285 905 L1282 901 L1282 899 L1279 894 L1279 892 L1276 888 L1276 885 L1273 881 L1273 879 L1270 875 L1270 873 L1267 869 L1267 867 L1264 864 L1264 862 L1261 858 L1261 856 L1256 849 L1254 844 L1252 842 L1252 840 L1249 837 L1248 834 L1243 828 L1240 822 L1234 815 L1233 812 L1230 809 L1228 805 L1221 797 L1216 789 L1210 783 L1210 782 L1200 770 L1201 763 L1204 759 L1205 754 L1207 752 L1207 749 L1210 744 L1210 740 L1213 736 L1213 732 L1216 728 L1216 724 L1218 721 L1219 715 L1222 709 L1222 705 L1225 700 L1225 694 L1228 689 L1228 683 L1231 676 L1231 670 L1234 662 L1234 653 L1237 645 L1237 634 L1238 633 L1238 628 L1239 627 L1239 623 L1240 622 L1240 606 L1241 605 L1241 597 L1242 596 L1242 548 L1241 547 L1241 537 L1240 536 L1240 517 L1239 516 L1239 512 L1238 511 L1238 507 L1237 506 L1237 496 L1234 488 L1234 479 L1231 471 L1231 464 L1228 458 L1228 452 L1225 447 L1225 442 L1222 436 L1222 432 L1219 426 L1219 422 L1216 417 L1216 414 L1213 409 L1213 405 L1210 401 L1210 397 L1207 393 L1207 391 L1204 386 L1204 383 L1202 381 L1201 377 L1198 373 L1197 369 L1195 367 L1195 364 L1193 362 L1192 358 L1189 355 L1189 353 L1186 349 L1186 347 L1183 344 L1183 342 L1177 334 L1177 332 L1171 324 L1171 322 L1156 302 L1153 296 L1150 293 L1150 291 L1149 290 L1150 285 L1171 261 L1189 236 L1190 233 L1194 228 L1195 225 L1197 223 L1198 219 L1201 216 L1201 214 L1203 212 L1205 207 L1207 205 L1208 201 L1210 199 L1210 196 L1212 194 L1213 189 L1216 185 L1216 182 L1219 177 L1219 174 L1222 168 L1222 165 L1225 160 L1225 156 L1228 152 L1228 147 L1230 144 L1230 142 L1231 141 L1231 136 L1234 130 L1234 124 L1237 117 L1237 110 L1240 103 L1240 95 L1243 88 L1243 77 L1240 74 L1233 74 L1229 77 L1227 77 L1224 80 L1222 80 L1214 86 L1212 86 L1209 89 L1207 89 L1204 92 L1201 93 L1189 101 L1187 101 L1184 104 L1182 104 L1179 107 L1177 107 L1174 110 L1172 110 L1163 116 L1161 116 L1157 119 L1155 119 L1152 122 L1149 122 L1146 125 L1144 125 L1133 131 L1131 131 L1129 133 L1125 134 L1121 137 L1118 137 L1113 140 L1108 141 L1106 143 L1102 143 L1097 146 L1093 146 L1088 149 L1083 149 L1078 152 L1074 152 L1066 155 L1060 155 L1055 157 L1050 157 L1049 158 L1039 158 L1038 159 L1011 159 L1010 158 L999 158 L998 157 L994 157 L989 155 L985 155 L977 151 L975 149 L973 149 L969 146 L965 145 L963 143 L961 143 L956 140 L954 140 L949 137 L947 137 L943 134 L940 134 L938 132 L934 131 L929 128 L926 128 L922 125 L918 125 L914 122 L910 122 L908 120 L903 119 L898 116 L895 116 L889 113 L883 112 L880 110 L876 110 L871 107 L867 107 L861 104 L857 104 L851 101 L846 101 L840 98 L833 98 L827 95 L821 95 L818 93 L815 93 L814 92 L808 92 L807 91 L804 91 L799 89 L792 89 L791 88 L788 88 L783 86 L774 86 L773 85 L769 85 L764 83 L750 83 L749 82 L741 81 L740 80 L723 80 L722 79 L700 78 L699 77 L640 77 L639 78 L622 78 L621 79 L615 79 L614 80 L599 80 L598 81 L588 82 L587 83 L574 83 L573 84 L569 84 L568 85 L564 85 L563 86 L555 86 L554 87 L546 88 L545 89 L538 89 L530 92 L523 92 L516 95 L510 95 L503 98 L497 98 L491 101 L485 101 L479 104 L474 104 L468 107 L463 107 L459 110 L454 110 L449 113 L445 113 L442 115 L436 116 L431 119 L427 119 L423 122 L419 122 L414 125 L411 125 L406 128 L403 128 L398 131 L396 131 L391 134 L389 134 L385 137 L381 137 L377 140 L374 140 L370 143 L367 143 L365 145 L361 146 L357 149 L354 149 L351 152 L348 152 L346 154 L337 155 L336 156 L328 157 L327 158 L296 159 L295 158 L280 158 L279 157 L274 157 L273 156 L269 156 L268 155 L262 155 L255 152 L250 152 L245 149 L240 149 L235 146 L231 146 L226 143 L223 143 L218 140 L215 140 L210 137 L207 137 L205 135 L201 134 L197 131 L194 131 L192 129 L188 128 L186 126 L182 125 L178 122 L176 122 L173 119 L170 119 L167 116 L165 116 L163 114 L159 113 L156 110 L154 110 L152 108 L144 104 L141 101 L139 101 L137 99 L129 95 L126 92 L124 92 L122 90 L119 89 L116 86 L105 80 L102 77 L96 74Z"/>
</svg>
